<svg width="26" height="27" viewBox="0 0 26 27" fill="none" xmlns="http://www.w3.org/2000/svg">
<g clip-path="url(#clip0_384_1975)">
<path d="M7.66829 25.7636C7.15567 25.4225 6.70135 25.0011 6.32279 24.5156C5.90637 24.0144 5.52054 23.4886 5.16741 22.941C4.33873 21.7269 3.68885 20.4001 3.23772 19.0011C2.69579 17.3761 2.43335 15.8186 2.43335 14.2951C2.43335 12.5938 2.80141 11.1085 3.52129 9.86051C4.05492 8.88506 4.8395 8.0699 5.79385 7.49939C6.71872 6.92493 7.78142 6.61055 8.86997 6.58939C9.25104 6.58939 9.66135 6.64464 10.0968 6.75026C10.4097 6.83883 10.7907 6.97858 11.2563 7.15245C11.8486 7.38076 12.1744 7.52051 12.2849 7.55464C12.6318 7.68139 12.9235 7.73664 13.1527 7.73664C13.3265 7.73664 13.5719 7.68139 13.8506 7.59689C14.0074 7.54164 14.3032 7.44414 14.7265 7.26295C15.1457 7.1102 15.4756 6.97939 15.738 6.88189C16.1402 6.76326 16.5294 6.65358 16.8763 6.59833C17.2876 6.53348 17.705 6.51631 18.1203 6.54714C18.8398 6.59417 19.5486 6.74665 20.2238 6.9997C21.328 7.44414 22.221 8.13801 22.8856 9.12439C22.6047 9.29753 22.341 9.49724 22.0983 9.72076C21.5698 10.1892 21.1197 10.7392 20.765 11.3498C20.3013 12.1843 20.0609 13.1244 20.067 14.079C20.0841 15.2515 20.3847 16.2841 20.977 17.1771C21.4125 17.8389 21.9784 18.4048 22.6402 18.8403C22.979 19.0686 23.2707 19.2254 23.5502 19.331C23.4194 19.7373 23.2797 20.1305 23.1147 20.5205C22.7406 21.3951 22.2873 22.2336 21.7603 23.0255C21.2907 23.7071 20.9226 24.2149 20.6431 24.5529C20.2076 25.0689 19.7883 25.4629 19.365 25.7376C18.8995 26.0463 18.3494 26.2113 17.7904 26.2113C17.4118 26.2258 17.0333 26.18 16.6692 26.0756C16.3563 25.97 16.0468 25.8554 15.7421 25.7246C15.4253 25.5791 15.0987 25.4561 14.7647 25.3565C13.9389 25.1444 13.0731 25.143 12.2467 25.3525C11.9079 25.45 11.5821 25.5637 11.2603 25.7034C10.8078 25.8936 10.5072 26.0211 10.3333 26.0756C9.98635 26.1771 9.62641 26.2405 9.26241 26.2616C8.69935 26.2616 8.17447 26.1008 7.65447 25.775L7.66829 25.7636ZM15.0945 5.76389C14.3584 6.13195 13.6556 6.28876 12.9577 6.23758C12.848 5.53476 12.9577 4.8157 13.2493 4.02839C13.4977 3.36138 13.8646 2.74479 14.3324 2.20839C14.8264 1.64372 15.4259 1.18088 16.0972 0.845826C16.8122 0.477763 17.4938 0.278701 18.1455 0.249451C18.23 0.985576 18.1455 1.70951 17.8749 2.49195C17.6245 3.18362 17.2583 3.82764 16.7918 4.39645C16.3158 4.96189 15.7315 5.42653 15.0734 5.76308L15.0945 5.76389Z" fill="#1E122B"/>
</g>
<defs>
<clipPath id="clip0_384_1975">
<rect width="26" height="26" fill="white" transform="translate(0 0.250244)"/>
</clipPath>
</defs>
</svg>
