<svg width="26" height="27" viewBox="0 0 26 27" fill="none" xmlns="http://www.w3.org/2000/svg">
<path d="M6.4202 15.7158L5.59745 18.7873L2.59033 18.8509C1.69164 17.184 1.18188 15.2769 1.18188 13.2503C1.18188 11.2905 1.65849 9.44245 2.50331 7.81519H2.50395L5.18114 8.30601L6.35391 10.9671C6.10845 11.6827 5.97467 12.4509 5.97467 13.2503C5.97476 14.1178 6.1319 14.949 6.4202 15.7158Z" fill="#FBBB00"/>
<path d="M24.6119 11.0424C24.7476 11.7573 24.8184 12.4956 24.8184 13.2502C24.8184 14.0963 24.7294 14.9216 24.5599 15.7178C23.9846 18.4268 22.4814 20.7924 20.3989 22.4664L20.3983 22.4658L17.0262 22.2937L16.549 19.3145C17.9308 18.5041 19.0107 17.2359 19.5795 15.7178H13.26V11.0424H19.6717H24.6119Z" fill="#518EF8"/>
<path d="M20.3981 22.4659L20.3988 22.4665C18.3735 24.0944 15.8007 25.0684 13.0001 25.0684C8.49942 25.0684 4.58645 22.5529 2.59033 18.8509L6.42021 15.7159C7.41824 18.3795 9.98773 20.2756 13.0001 20.2756C14.2949 20.2756 15.5079 19.9256 16.5488 19.3146L20.3981 22.4659Z" fill="#28B446"/>
<path d="M20.5437 4.15283L16.7151 7.28724C15.6379 6.61388 14.3644 6.22489 13.0002 6.22489C9.91965 6.22489 7.30211 8.208 6.35407 10.9671L2.50406 7.81518H2.50342C4.47031 4.02297 8.43264 1.43207 13.0002 1.43207C15.8677 1.43207 18.4969 2.45351 20.5437 4.15283Z" fill="#F14336"/>
</svg>
