<svg width="132" height="117" viewBox="0 0 132 117" fill="none" xmlns="http://www.w3.org/2000/svg">
<path d="M56.7384 101.036C56.1347 99.5751 55.03 97.5287 52.9474 96.0271C49.5925 93.6049 46.1713 94.3791 42.1147 93.7377C35.8729 92.7507 31.5718 88.9975 29.4227 87.025C27.9468 85.6698 18.2792 76.4911 20.3195 63.2649C22.0852 51.8165 31.2971 45.9339 32.7353 45.048C34.572 43.892 43.3462 38.6447 54.8851 40.9642C66.0227 43.2038 72.0185 50.9397 73.3601 52.7658C79.024 55.8339 85.2945 54.6281 88.011 50.8552C90.2264 47.7796 89.4175 43.9191 89.2032 43.0152C87.2685 39.4023 81.1293 29.057 68.1415 22.7699C54.4565 16.1447 41.8672 18.2349 37.9494 19.0468C33.2303 20.5454 22.3675 24.6956 13.1164 35.3804C3.14842 46.8952 0.869605 59.2793 0.234253 64.1402C-0.201892 68.5032 -0.669728 79.1774 5.23407 90.6062C6.11994 92.3221 10.5855 100.708 20.1414 107.608C23.4676 110.011 29.6129 114.344 38.7342 115.791C42.8934 116.45 46.4324 116.315 48.8878 116.061C49.7752 115.892 53.2884 115.118 55.6563 111.864C59.1485 107.067 56.8802 101.371 56.7399 101.034L56.7384 101.036Z" fill="#B64CF2"/>
<path d="M75.2615 15.2343C75.8652 16.6952 76.9699 18.7416 79.0525 20.2432C82.4074 22.6654 85.8286 21.8912 89.8852 22.5326C96.127 23.5196 100.428 27.2728 102.577 29.2453C104.053 30.6005 113.721 39.7791 111.68 53.0053C109.915 64.4538 100.703 70.3364 99.2646 71.2223C97.4279 72.3783 88.6537 77.6256 77.1147 75.3061C65.9772 73.0665 59.9814 65.3306 58.6397 63.5045C52.9759 60.4364 46.7054 61.6422 43.9889 65.4151C41.7735 68.4907 42.5824 72.3511 42.7967 73.2551C44.7314 76.868 50.8706 87.2133 63.8584 93.5004C77.5434 100.126 90.1327 98.0354 94.0504 97.2234C98.7696 95.7249 109.632 91.5747 118.884 80.8899C128.851 69.3751 131.13 56.991 131.766 52.13C132.202 47.7671 132.67 37.0929 126.766 25.6641C125.88 23.9482 121.414 15.5618 111.858 8.66196C108.532 6.25939 102.387 1.92662 93.2657 0.479348C89.1065 -0.18015 85.5675 -0.0443328 83.1121 0.209204C82.2247 0.378229 78.7114 1.15243 76.3436 4.40616C72.8514 9.20375 75.1197 14.8993 75.26 15.2358L75.2615 15.2343Z" fill="#1E122B"/>
</svg>
